<mxfile host="app.diagrams.net" modified="2024-03-12T10:54:25.160Z" agent="Mozilla/5.0 (X11; Ubuntu; Linux x86_64; rv:109.0) Gecko/20100101 Firefox/114.0" etag="ey1zUx8_VTAcqFFvtjDK" version="23.1.0" type="github">
  <diagram id="C5RBs43oDa-KdzZeNtuy" name="Page-1">
    <mxGraphModel dx="1434" dy="741" grid="1" gridSize="10" guides="1" tooltips="1" connect="1" arrows="1" fold="1" page="1" pageScale="1" pageWidth="827" pageHeight="1169" background="none" math="0" shadow="0">
      <root>
        <mxCell id="WIyWlLk6GJQsqaUBKTNV-0" />
        <mxCell id="WIyWlLk6GJQsqaUBKTNV-1" parent="WIyWlLk6GJQsqaUBKTNV-0" />
        <mxCell id="KXw1aKZI4elZVQ5XW_tO-2" style="edgeStyle=orthogonalEdgeStyle;rounded=0;orthogonalLoop=1;jettySize=auto;html=1;exitX=0;exitY=0.5;exitDx=0;exitDy=0;entryX=1;entryY=0.5;entryDx=0;entryDy=0;" parent="WIyWlLk6GJQsqaUBKTNV-1" source="WuzCzDK2jLKwMSGD9dU1-0" target="KXw1aKZI4elZVQ5XW_tO-1" edge="1">
          <mxGeometry relative="1" as="geometry" />
        </mxCell>
        <mxCell id="WuzCzDK2jLKwMSGD9dU1-0" value="Sí" style="rounded=0;whiteSpace=wrap;html=1;" parent="WIyWlLk6GJQsqaUBKTNV-1" vertex="1">
          <mxGeometry x="270" y="340" width="40" height="30" as="geometry" />
        </mxCell>
        <mxCell id="WuzCzDK2jLKwMSGD9dU1-23" style="edgeStyle=orthogonalEdgeStyle;rounded=0;orthogonalLoop=1;jettySize=auto;html=1;exitX=0.5;exitY=1;exitDx=0;exitDy=0;entryX=0.5;entryY=0;entryDx=0;entryDy=0;" parent="WIyWlLk6GJQsqaUBKTNV-1" source="WuzCzDK2jLKwMSGD9dU1-1" target="WuzCzDK2jLKwMSGD9dU1-3" edge="1">
          <mxGeometry relative="1" as="geometry" />
        </mxCell>
        <mxCell id="WuzCzDK2jLKwMSGD9dU1-1" value="Asignar prioridad directamente" style="rounded=0;whiteSpace=wrap;html=1;" parent="WIyWlLk6GJQsqaUBKTNV-1" vertex="1">
          <mxGeometry x="335" y="490" width="150" height="40" as="geometry" />
        </mxCell>
        <mxCell id="WuzCzDK2jLKwMSGD9dU1-24" style="edgeStyle=orthogonalEdgeStyle;rounded=0;orthogonalLoop=1;jettySize=auto;html=1;exitX=0.5;exitY=1;exitDx=0;exitDy=0;entryX=0.5;entryY=0;entryDx=0;entryDy=0;" parent="WIyWlLk6GJQsqaUBKTNV-1" source="WuzCzDK2jLKwMSGD9dU1-3" target="WuzCzDK2jLKwMSGD9dU1-9" edge="1">
          <mxGeometry relative="1" as="geometry">
            <mxPoint x="410" y="670" as="targetPoint" />
          </mxGeometry>
        </mxCell>
        <mxCell id="WuzCzDK2jLKwMSGD9dU1-3" value="Agregar a la pila de peticiones" style="rounded=0;whiteSpace=wrap;html=1;" parent="WIyWlLk6GJQsqaUBKTNV-1" vertex="1">
          <mxGeometry x="335" y="565" width="150" height="40" as="geometry" />
        </mxCell>
        <mxCell id="WuzCzDK2jLKwMSGD9dU1-14" style="edgeStyle=orthogonalEdgeStyle;rounded=0;orthogonalLoop=1;jettySize=auto;html=1;exitX=0.5;exitY=1;exitDx=0;exitDy=0;entryX=0.5;entryY=0;entryDx=0;entryDy=0;" parent="WIyWlLk6GJQsqaUBKTNV-1" source="WuzCzDK2jLKwMSGD9dU1-4" edge="1">
          <mxGeometry relative="1" as="geometry">
            <mxPoint x="410" y="310" as="targetPoint" />
          </mxGeometry>
        </mxCell>
        <mxCell id="WuzCzDK2jLKwMSGD9dU1-4" value="Seleccionar Vendedor" style="shape=parallelogram;perimeter=parallelogramPerimeter;whiteSpace=wrap;html=1;fixedSize=1;" parent="WIyWlLk6GJQsqaUBKTNV-1" vertex="1">
          <mxGeometry x="330" y="240" width="160" height="40" as="geometry" />
        </mxCell>
        <mxCell id="WuzCzDK2jLKwMSGD9dU1-13" style="edgeStyle=orthogonalEdgeStyle;rounded=0;orthogonalLoop=1;jettySize=auto;html=1;exitX=0.5;exitY=1;exitDx=0;exitDy=0;entryX=0.5;entryY=0;entryDx=0;entryDy=0;" parent="WIyWlLk6GJQsqaUBKTNV-1" target="WuzCzDK2jLKwMSGD9dU1-4" edge="1">
          <mxGeometry relative="1" as="geometry">
            <mxPoint x="410" y="210" as="sourcePoint" />
          </mxGeometry>
        </mxCell>
        <mxCell id="WuzCzDK2jLKwMSGD9dU1-7" value="&lt;span style=&quot;font-size: 16px;&quot;&gt;&lt;b&gt;PILA DE PETICIONES&lt;/b&gt;&lt;/span&gt;" style="text;html=1;align=center;verticalAlign=middle;resizable=0;points=[];autosize=1;strokeColor=none;fillColor=none;" parent="WIyWlLk6GJQsqaUBKTNV-1" vertex="1">
          <mxGeometry x="150" y="80" width="190" height="30" as="geometry" />
        </mxCell>
        <mxCell id="WuzCzDK2jLKwMSGD9dU1-12" style="edgeStyle=orthogonalEdgeStyle;rounded=0;orthogonalLoop=1;jettySize=auto;html=1;exitX=0.5;exitY=1;exitDx=0;exitDy=0;entryX=0.5;entryY=0;entryDx=0;entryDy=0;" parent="WIyWlLk6GJQsqaUBKTNV-1" source="WuzCzDK2jLKwMSGD9dU1-8" edge="1">
          <mxGeometry relative="1" as="geometry">
            <mxPoint x="410" y="170" as="targetPoint" />
          </mxGeometry>
        </mxCell>
        <mxCell id="WuzCzDK2jLKwMSGD9dU1-8" value="&lt;b&gt;INICIO&lt;/b&gt;" style="ellipse;whiteSpace=wrap;html=1;" parent="WIyWlLk6GJQsqaUBKTNV-1" vertex="1">
          <mxGeometry x="370" y="90" width="80" height="40" as="geometry" />
        </mxCell>
        <mxCell id="WuzCzDK2jLKwMSGD9dU1-9" value="&lt;b&gt;FIN&lt;/b&gt;" style="ellipse;whiteSpace=wrap;html=1;" parent="WIyWlLk6GJQsqaUBKTNV-1" vertex="1">
          <mxGeometry x="370" y="650" width="80" height="40" as="geometry" />
        </mxCell>
        <mxCell id="WuzCzDK2jLKwMSGD9dU1-17" style="edgeStyle=orthogonalEdgeStyle;rounded=0;orthogonalLoop=1;jettySize=auto;html=1;exitX=0;exitY=0.5;exitDx=0;exitDy=0;" parent="WIyWlLk6GJQsqaUBKTNV-1" source="WuzCzDK2jLKwMSGD9dU1-15" target="WuzCzDK2jLKwMSGD9dU1-0" edge="1">
          <mxGeometry relative="1" as="geometry" />
        </mxCell>
        <mxCell id="WuzCzDK2jLKwMSGD9dU1-20" style="edgeStyle=orthogonalEdgeStyle;rounded=0;orthogonalLoop=1;jettySize=auto;html=1;exitX=0.5;exitY=1;exitDx=0;exitDy=0;entryX=0.5;entryY=0;entryDx=0;entryDy=0;" parent="WIyWlLk6GJQsqaUBKTNV-1" source="WuzCzDK2jLKwMSGD9dU1-15" target="WuzCzDK2jLKwMSGD9dU1-19" edge="1">
          <mxGeometry relative="1" as="geometry" />
        </mxCell>
        <mxCell id="WuzCzDK2jLKwMSGD9dU1-15" value="&lt;span style=&quot;font-size: 10px;&quot;&gt;¿Pedido al mismo tiempo que otro producto?&lt;/span&gt;" style="rhombus;whiteSpace=wrap;html=1;" parent="WIyWlLk6GJQsqaUBKTNV-1" vertex="1">
          <mxGeometry x="347.5" y="310" width="125" height="90" as="geometry" />
        </mxCell>
        <mxCell id="WuzCzDK2jLKwMSGD9dU1-22" style="edgeStyle=orthogonalEdgeStyle;rounded=0;orthogonalLoop=1;jettySize=auto;html=1;exitX=0.5;exitY=1;exitDx=0;exitDy=0;entryX=0.5;entryY=0;entryDx=0;entryDy=0;" parent="WIyWlLk6GJQsqaUBKTNV-1" source="WuzCzDK2jLKwMSGD9dU1-19" target="WuzCzDK2jLKwMSGD9dU1-1" edge="1">
          <mxGeometry relative="1" as="geometry" />
        </mxCell>
        <mxCell id="WuzCzDK2jLKwMSGD9dU1-19" value="No" style="rounded=0;whiteSpace=wrap;html=1;" parent="WIyWlLk6GJQsqaUBKTNV-1" vertex="1">
          <mxGeometry x="390" y="435" width="40" height="30" as="geometry" />
        </mxCell>
        <mxCell id="KXw1aKZI4elZVQ5XW_tO-0" value="Nueva Petición de Producto" style="rounded=0;whiteSpace=wrap;html=1;" parent="WIyWlLk6GJQsqaUBKTNV-1" vertex="1">
          <mxGeometry x="335" y="170" width="150" height="40" as="geometry" />
        </mxCell>
        <mxCell id="KXw1aKZI4elZVQ5XW_tO-1" value="Esperar" style="rounded=0;whiteSpace=wrap;html=1;fillColor=none;" parent="WIyWlLk6GJQsqaUBKTNV-1" vertex="1">
          <mxGeometry x="110" y="337.5" width="110" height="35" as="geometry" />
        </mxCell>
        <mxCell id="XpFkBA8-bqwB3f7aprFc-2" style="edgeStyle=orthogonalEdgeStyle;rounded=0;orthogonalLoop=1;jettySize=auto;html=1;exitX=0.5;exitY=0;exitDx=0;exitDy=0;entryX=0.284;entryY=0.167;entryDx=0;entryDy=0;entryPerimeter=0;" edge="1" parent="WIyWlLk6GJQsqaUBKTNV-1" source="KXw1aKZI4elZVQ5XW_tO-1" target="WuzCzDK2jLKwMSGD9dU1-15">
          <mxGeometry relative="1" as="geometry">
            <Array as="points">
              <mxPoint x="165" y="325" />
            </Array>
          </mxGeometry>
        </mxCell>
      </root>
    </mxGraphModel>
  </diagram>
</mxfile>
